<svg width="12" height="8" viewBox="0 0 12 8" fill="none" xmlns="http://www.w3.org/2000/svg">
<path fill-rule="evenodd" clip-rule="evenodd" d="M1 0.956249C1.27614 0.956249 1.5 1.18011 1.5 1.45625V5.5C1.5 5.89782 1.65804 6.27935 1.93934 6.56066C2.22064 6.84196 2.60218 7 3 7H9C9.39782 7 9.77936 6.84196 10.0607 6.56066C10.342 6.27935 10.5 5.89782 10.5 5.5V1.45625C10.5 1.18011 10.7239 0.956249 11 0.956249C11.2761 0.956249 11.5 1.18011 11.5 1.45625V5.5C11.5 6.16304 11.2366 6.79892 10.7678 7.26777C10.2989 7.73661 9.66304 8 9 8H3C2.33696 8 1.70107 7.73661 1.23223 7.26777C0.763392 6.79892 0.5 6.16304 0.5 5.5V1.45625C0.5 1.18011 0.723858 0.956249 1 0.956249Z" fill="white"/>
</svg>
